<?xml version="1.0" standalone="no"?><!DOCTYPE svg PUBLIC "-//W3C//DTD SVG 1.1//EN" "http://www.w3.org/Graphics/SVG/1.1/DTD/svg11.dtd"><svg t="1496635074395" class="icon" style="" viewBox="0 0 1024 1024" version="1.1" xmlns="http://www.w3.org/2000/svg" p-id="5236" xmlns:xlink="http://www.w3.org/1999/xlink" width="200" height="200"><defs><style type="text/css"></style></defs><path d="M512.000512 153.842831c-226.062666 0-409.322479 160.352081-409.322479 358.157169s183.259814 358.157169 409.322479 358.157169c46.670949 0 91.520413-6.835685 133.307122-19.423375 35.675524-10.746762 64.336284-59.644425 46.871517-127.977743-7.765871-30.385031-7.099698-56.685024 8.978489-72.763211 22.35924-22.35924 65.325821-17.951861 108.839871 7.186679 73.640184 42.542932 111.324458-77.112262 111.324458-145.17952C921.322991 314.194912 738.063177 153.842831 512.000512 153.842831zM512.000512 244.056482c28.257577 0 51.16531 22.907733 51.16531 51.16531s-22.907733 51.16531-51.16531 51.16531-51.16531-22.907733-51.16531-51.16531S483.741911 244.056482 512.000512 244.056482zM338.357729 397.552411c-28.257577 0-51.16531-22.907733-51.16531-51.16531s22.907733-51.16531 51.16531-51.16531 51.16531 22.907733 51.16531 51.16531S366.615307 397.552411 338.357729 397.552411zM496.454444 756.395196c-42.386366 0-76.747965-34.361599-76.747965-76.747965s34.361599-76.747965 76.747965-76.747965c42.387389 0 76.747965 34.361599 76.747965 76.747965S538.841833 756.395196 496.454444 756.395196zM685.642271 397.552411c-28.256554 0-51.16531-22.907733-51.16531-51.16531s22.908756-51.16531 51.16531-51.16531c28.258601 0 51.16531 22.907733 51.16531 51.16531S713.900871 397.552411 685.642271 397.552411z" p-id="5237"></path></svg>