<?xml version="1.0" standalone="no"?><!DOCTYPE svg PUBLIC "-//W3C//DTD SVG 1.1//EN" "http://www.w3.org/Graphics/SVG/1.1/DTD/svg11.dtd"><svg t="1496611051361" class="icon" style="" viewBox="0 0 1024 1024" version="1.1" xmlns="http://www.w3.org/2000/svg" p-id="2847" xmlns:xlink="http://www.w3.org/1999/xlink" width="200" height="200"><defs><style type="text/css"></style></defs><path d="M746.761991 175.535544c-29.661219 20.894041-58.554511 38.684373-90.295535 64.505953-23.99775 19.614161-67.321689 46.427647-69.65747 82.552261-3.615661 54.938849 81.016405 105.750086 36.124613 175.407556-17.022404 26.55751-45.915695 37.916445-82.552261 54.170921-4.383589-7.99925 9.535106-14.71862 15.486548-23.229822 56.250726-81.528357-58.554511-108.597819-43.867887-208.940412 14.174671-96.982908 128.467956-130.803737 234.761991-144.466456zM388.203606 510.864106c-26.55751 12.382839-70.93735 14.71862-90.295535 41.27613 19.614161 14.71862 48.251476 14.174671 74.808987 15.486548 108.853795 4.895541 245.065025-4.383589 337.92032-20.638065 3.103709 6.71937-12.894791 18.302284-23.229822 25.789582-58.554511 42.811986-240.681436 54.938849-366.301659 46.427647-42.044058-2.847733-138.259038-13.918695-139.314939-51.579164-1.27988-45.659719 116.597069-50.55526 165.104521-54.170921 9.535106-0.767928 27.357435-4.639565 41.27613-2.591757zM334.032684 626.949224c12.126863 1.535856-8.511202 8.767178-5.151517 18.046308 44.379839 43.867887 182.382902 31.485048 250.216542 18.046308 14.174671-2.847733 28.381339-11.358935 38.684373-10.335031 25.789582 2.335781 42.300034 32.252976 64.505953 36.124613-78.424648 35.356685-229.834453 52.123113-340.512077 30.941099-28.637315-5.407493-78.424648-20.894041-79.960504-43.867887-2.335781-31.229072 49.27538-44.379839 72.21723-49.019404zM367.565541 732.731306c7.99925 2.591757-2.847733 6.975346-2.591757 10.335031 23.485798 40.764178 139.570915 26.301534 198.637378 12.894791 11.870887-2.847733 23.741774-11.102959 33.532856-10.335031 29.917195 2.047808 41.27613 33.27688 67.065713 38.684373-82.296285 50.299284-281.70159 70.681374-363.741899 7.743274-3.871637-45.915695 33.020904-51.067212 67.065713-59.322439zM292.756554 810.13205c-24.509702 6.207418-87.959754-2.591757-90.295535 30.941099-0.767928 12.894791 21.661969 28.125363 36.124613 33.532856 84.088117 31.741024 253.064275 36.636565 392.091241 20.638065 64.505953-7.487298 185.742587-29.149267 170.256038-95.447052 19.358185 2.335781 36.636565 14.71862 38.684373 33.532856 7.743274 71.193326-155.825391 101.110521-221.835203 108.341843-143.698528 15.742524-323.233697 12.638815-433.367372-25.789582-35.868637-12.382839-79.192576-35.356685-77.400744-69.65747 3.103709-57.786583 142.386651-73.785083 185.742587-36.124613zM512.031997 1023.968003c-96.726932-10.591007-189.8702-24.765678-268.294847-59.322439 205.068775 49.27538 504.048745 45.659719 647.491298-59.322439 7.743274-5.663469 14.974596-16.766428 25.789582-15.486548-36.124613 108.341843-174.895604 115.829141-294.08443 134.131425-37.148517 0-74.041059 0-110.9336 0zM579.09771 0.095991c18.046308 17.022404 30.941099 48.763428 30.941099 82.552261 0 99.830641-105.750086 157.617223-157.361247 224.42696-11.358935 14.974596-26.045558 37.916445-25.789582 61.914196 0.511952 54.426897 56.762678 115.317189 77.400744 159.953004-36.124613-23.741774-79.960504-55.450801-110.9336-92.855295-30.941099-37.148517-61.914196-97.49486-33.532856-149.617973 42.55601-78.424648 169.232134-125.108271 214.123926-208.940412 10.846983-20.382089 19.358185-51.579164 5.151517-77.400744zM731.30744 536.685686c53.147017-45.403743 143.154579-27.613411 147.026216 49.019404 4.383589 89.783583-93.911196 140.082867-165.104521 144.466456 33.020904-31.485048 120.21273-82.040309 103.190326-154.76949-6.975346-29.405243-43.611911-47.195575-85.112021-38.684373z" p-id="2848"></path></svg>