<?xml version="1.0" encoding="UTF-8" standalone="no"?>
<svg id="svg2" xmlns:rdf="http://www.w3.org/1999/02/22-rdf-syntax-ns#" xmlns="http://www.w3.org/2000/svg" height="148.26" width="963.22" version="1.1" xmlns:cc="http://creativecommons.org/ns#" xmlns:dc="http://purl.org/dc/elements/1.1/" viewBox="0 0 963.22101 148.26115">
 <g id="layer1" transform="translate(-20.257 -871.99)">
  <path id="path4235" d="m164.29 872.87c-0.32734 0.0115-7.328 1.1431-15.559 2.5137l-14.965 2.4961-0.39063 10.211c-0.21485 5.6137-0.40688 11.727-0.42578 13.584l-0.0352 3.377h15.986 15.984v-16.104c0-15.104-0.037-16.078-0.5957-16.078zm-31.322 102.61-0.21875 8.9453c-0.12101 4.9206-0.2207 12.373-0.2207 16.561v7.6113h15.869 15.871v-16.559-16.559h-15.65-15.65zm-105.08 0.42187 0.10742 1.0059c0.0822 0.7794 3.1829 4.4262 13.771 16.189l13.666 15.182h21.666 21.666l-3.0215-3.3223c-1.6615-1.8283-8.2377-9.1123-14.613-16.189l-11.592-12.865h-20.824-20.826z" stroke="#000" stroke-width=".13727" fill="#00c800"/>
  <text id="text4415" style="word-spacing:0px;letter-spacing:0px" xml:space="preserve" font-size="125px" y="1007.8733" x="176.3333" font-family="sans-serif" line-height="125%" fill="#52ff42"><tspan id="tspan4417" y="1007.8733" x="176.3333" fill="#52ff42">oshua Menke</tspan></text>
  <path id="rect4152" d="m66.494 889.24-36.864 15.939h102.62l0.99217-26.411 30.625-4.9806-0.093 31.394h0.18539v-31.524zm97.28 15.939h-31.524l-0.22254 71.301h31.283v31.524h-31.394l31.524 0.1146zm-31.858 102.82 0.1113-31.524h-63.79l28.594 31.542zm-35.085 0h-42.576l20.167 10.734 62.627 0.1011zm-42.576 0-25.275-27.89-0.01854 27.89zm-25.275-27.89v-3.6532h39.257l10.666-43.994-56.933 23.275z" fill-opacity=".45714" stroke="#000" stroke-width="2.8343"/>
 </g>
</svg>
